<svg xmlns="http://www.w3.org/2000/svg" viewBox="0 0 96 96" width="96" height="96">
<!-- 18 = Dove (white dove, olive branch) -->
<defs>
<linearGradient id="g" x1="0" y1="0" x2="0" y2="1"><stop offset="0" stop-color="#ffffff"/><stop offset=".5" stop-color="#eef3f7"/><stop offset="1" stop-color="#cddae2"/></linearGradient>
<linearGradient id="lf" x1="0" y1="0" x2="0" y2="1"><stop offset="0" stop-color="#a9db78"/><stop offset="1" stop-color="#3f8a2c"/></linearGradient>
</defs>
<path d="M20 58 Q28 34 54 34 Q46 44 50 52 Q66 44 82 50 Q68 62 50 62 Q60 70 56 80 Q42 72 38 58 Q28 64 20 58 Z" fill="url(#g)"/>
<circle cx="54" cy="34" r="9" fill="url(#g)"/>
<path d="M45 33 L34 30 L45 38 Z" fill="#f2b23c"/>
<circle cx="57" cy="31" r="1.8" fill="#0e2c1d"/>
<g fill="url(#lf)">
<ellipse cx="26" cy="26" rx="6" ry="3" transform="rotate(-30 26 26)"/>
<ellipse cx="20" cy="32" rx="6" ry="3" transform="rotate(-5 20 32)"/>
<ellipse cx="22" cy="20" rx="5" ry="2.6" transform="rotate(-55 22 20)"/>
</g>
<path d="M34 30 Q26 27 20 30" fill="none" stroke="#8a5a2c" stroke-width="1.6" stroke-linecap="round"/>
</svg>
