<svg xmlns="http://www.w3.org/2000/svg" viewBox="0 0 96 96" width="96" height="96">
<!-- Loyal (faithful dog) -->
<defs><linearGradient id="g_loyal" x1="0" y1="0" x2="0" y2="1"><stop offset="0" stop-color="#ffe9a8"/><stop offset=".45" stop-color="#ffcf4d"/><stop offset=".8" stop-color="#ff8a1e"/><stop offset="1" stop-color="#e0561a"/></linearGradient></defs>
<path d="M28 34 Q22 46 30 58 L38 44 Z" fill="url(#g_loyal)" stroke="#0e2c1d" stroke-width="2" stroke-linejoin="round"/>
<path d="M68 34 Q74 46 66 58 L58 44 Z" fill="url(#g_loyal)" stroke="#0e2c1d" stroke-width="2" stroke-linejoin="round"/>
<path d="M32 38 Q32 22 48 22 Q64 22 64 38 Q64 54 56 60 L56 68 Q48 72 40 68 L40 60 Q32 54 32 38 Z" fill="url(#g_loyal)" stroke="#0e2c1d" stroke-width="2" stroke-linejoin="round"/>
<ellipse cx="48" cy="62" rx="9" ry="7" fill="url(#g_loyal)" stroke="#0e2c1d" stroke-width="2"/>
<ellipse cx="48" cy="58" rx="3.5" ry="2.6" fill="#0e2c1d"/>
<circle cx="41" cy="44" r="2.4" fill="#0e2c1d"/><circle cx="55" cy="44" r="2.4" fill="#0e2c1d"/>
</svg>
